<?xml version="1.0" standalone="no"?>
<!DOCTYPE svg PUBLIC "-//W3C//DTD SVG 20010904//EN"
 "http://www.w3.org/TR/2001/REC-SVG-20010904/DTD/svg10.dtd">
<svg version="1.0" xmlns="http://www.w3.org/2000/svg"
 width="200.000000pt" height="200.000000pt" viewBox="0 0 200.000000 200.000000"
 preserveAspectRatio="xMidYMid meet">

<g transform="translate(0.000000,200.000000) scale(0.100000,-0.100000)"
fill="#000000" stroke="none">
<path d="M566 1587 l-428 -232 431 -3 c237 -1 625 -1 862 0 l430 3 -278 150
c-153 82 -347 186 -431 232 -84 46 -154 83 -155 82 -1 0 -195 -105 -431 -232z
m494 23 c46 -46 36 -113 -23 -145 l-37 -20 -37 20 c-60 32 -70 99 -21 145 29
27 91 27 118 0z"/>
<path d="M288 1303 c-13 -3 -18 -14 -18 -39 0 -32 2 -34 35 -34 32 0 35 -2 35
-29 0 -17 5 -33 10 -36 14 -8 14 -675 0 -675 -5 0 -10 -16 -10 -35 0 -33 -2
-35 -35 -35 -33 0 -35 -2 -35 -35 0 -33 -2 -35 -35 -35 -31 0 -35 -3 -35 -25
0 -22 -4 -25 -40 -25 l-40 0 0 -60 0 -60 880 0 880 0 0 60 0 60 -40 0 c-36 0
-40 3 -40 25 0 22 -4 25 -35 25 -33 0 -35 2 -35 35 0 33 -2 35 -35 35 -34 0
-35 1 -35 40 0 22 -4 40 -10 40 -6 0 -10 118 -10 335 0 217 4 335 10 335 6 0
10 14 10 30 0 28 3 30 35 30 33 0 35 2 35 34 0 26 -5 35 -22 40 -26 6 -1394 6
-1420 -1z m312 -108 c0 -19 5 -35 10 -35 6 0 10 -119 10 -336 0 -221 -3 -333
-10 -329 -6 4 -10 -10 -10 -34 l0 -41 -40 0 -40 0 0 40 c0 22 -4 40 -10 40 -6
0 -10 117 -10 330 0 213 4 330 10 330 6 0 10 16 10 35 0 34 1 35 40 35 39 0
40 -1 40 -35z m620 0 c0 -19 5 -35 10 -35 6 0 10 -119 10 -336 0 -221 -3 -333
-10 -329 -6 4 -10 -10 -10 -34 l0 -41 -220 0 -220 0 0 40 c0 22 -4 40 -10 40
-6 0 -10 118 -10 335 0 217 4 335 10 335 6 0 10 14 10 30 l0 30 220 0 220 0 0
-35z m260 0 c0 -19 5 -35 10 -35 6 0 10 -117 10 -330 0 -213 -4 -330 -10 -330
-5 0 -10 -18 -10 -40 l0 -40 -40 0 -40 0 0 41 c0 24 -4 38 -10 34 -7 -4 -10
110 -10 335 0 225 3 339 10 335 6 -4 10 8 10 29 0 35 1 36 40 36 39 0 40 -1
40 -35z m-1050 -365 c0 -220 -4 -340 -10 -340 -6 0 -10 118 -10 333 0 294 3
347 17 347 2 0 3 -153 3 -340z m260 5 c0 -261 -3 -335 -12 -335 -10 0 -12 70
-11 322 2 178 3 329 3 336 0 6 5 12 10 12 6 0 10 -118 10 -335z m49 -12 c-1
-183 -5 -323 -10 -323 -5 0 -9 145 -9 338 0 218 4 332 10 322 6 -9 9 -148 9
-337z m571 7 c0 -202 -4 -331 -10 -335 -9 -5 -20 616 -12 658 2 10 8 15 13 12
5 -4 9 -145 9 -335z m50 0 c0 -208 -4 -331 -10 -335 -7 -4 -10 110 -10 335 0
225 3 339 10 335 6 -4 10 -127 10 -335z m210 -6 c0 -264 -3 -335 -12 -332 -10
4 -14 80 -16 329 -1 178 0 330 3 337 3 7 9 10 15 7 6 -4 10 -127 10 -341z m40
11 c0 -217 -4 -335 -10 -335 -6 0 -10 116 -10 328 0 290 3 342 17 342 2 0 3
-151 3 -335z m-1130 -5 c0 -213 -4 -330 -10 -330 -6 0 -10 117 -10 330 0 213
4 330 10 330 6 0 10 -117 10 -330z"/>
</g>
</svg>
