<svg width="209" height="38" viewBox="0 0 209 38" fill="none" xmlns="http://www.w3.org/2000/svg">
<path d="M20.8379 20.8282V12.8755L16.3464 5.09473L15.1094 10.9713L20.8379 20.8282Z" fill="#3A77EC"/>
<path d="M25.8456 5.09473L21.3535 12.8755V20.8276L27.082 10.9713L25.8456 5.09473Z" fill="#3A77EC"/>
<path d="M9.04883 16.8735H13.3432L15.6679 5.8291L12.5617 11.0121L9.04883 16.8735Z" fill="#6728F3"/>
<path d="M13.3717 17.3872H9.04297L10.4976 19.907L19.9611 36.297L16.7167 26.9869L13.3717 17.3872Z" fill="#0CB1B5"/>
<path d="M0.184976 2.04834L6.03181 12.175L13.1071 0H1.36783C0.316552 0 -0.340664 1.13789 0.184976 2.04834Z" fill="#6728F3"/>
<path d="M8.60193 16.6249L12.2702 10.5044L15.9384 4.38446L13.5529 0.255371L6.32812 12.6869L8.60193 16.6249Z" fill="#3A77EC"/>
<path d="M40.8233 0H29.084L36.1593 12.1744L42.0061 2.04834C42.5318 1.13789 41.8746 0 40.8233 0Z" fill="#6728F3"/>
<path d="M33.591 16.6249L35.8655 12.6869L28.6407 0.255371L26.2559 4.38446L29.6656 10.0753L33.591 16.6249Z" fill="#3A77EC"/>
<path d="M27.2364 11.7222L21.3506 21.8495L21.094 22.2905V22.2912L20.8375 21.8502L14.9517 11.7222L13.8164 17.1141L21.094 38.0002V37.9995L28.3717 17.1141L27.2364 11.7222Z" fill="#00EBD2"/>
<path d="M28.8462 16.8728H33.1399L29.67 11.0829L26.5215 5.8291L28.8462 16.8728Z" fill="#6728F3"/>
<path d="M22.2324 36.299L33.1505 17.3872H28.8218L22.2324 36.299Z" fill="#0CB1B5"/>
<path d="M61.2913 10.3789L57.2418 20.2783L53.1912 10.3789H48.5254L57.2418 27.9999L65.9813 10.3789H61.2913Z" fill="#0CB3B7"/>
<path d="M71.7827 10.3789H67.709V26.9578H71.7827V10.3789Z" fill="#0CB3B7"/>
<path d="M79.3609 10.3789H75.2871V26.9578H79.3609V10.3789Z" fill="#0CB3B7"/>
<path d="M94.3323 10.3789H81.2109V13.9553H85.7579V26.9578H89.7612V13.9553H94.3323V10.3789Z" fill="#0CB3B7"/>
<path d="M109.361 24.9921C110.158 24.2027 110.773 23.2714 111.208 22.1971C111.642 21.1238 111.86 19.9467 111.86 18.668C111.86 17.3893 111.638 16.2204 111.196 15.1632C110.754 14.106 110.13 13.1897 109.326 12.4154C108.52 11.6422 107.577 11.0461 106.495 10.6273C105.414 10.2094 104.233 10 102.954 10C101.676 10 100.515 10.2094 99.4252 10.6273C98.3357 11.0461 97.3883 11.6422 96.5828 12.4154C95.7773 13.1897 95.1501 14.105 94.7 15.1632C94.2499 16.2214 94.0254 17.3893 94.0254 18.668C94.0254 19.9467 94.2419 21.1238 94.6768 22.1971C95.1108 23.2714 95.727 24.2027 96.5244 24.9921C97.3218 25.7815 98.2653 26.3937 99.3547 26.8276C100.444 27.2616 101.644 27.479 102.955 27.479C104.266 27.479 105.442 27.2616 106.532 26.8276C107.621 26.3937 108.564 25.7815 109.362 24.9921H109.361ZM105.406 23.0267C104.703 23.4526 103.886 23.6661 102.954 23.6661C102.023 23.6661 101.181 23.4526 100.479 23.0267C99.7766 22.6008 99.2319 22.0128 98.8452 21.2627C98.4576 20.5126 98.2653 19.6487 98.2653 18.669C98.2653 17.6894 98.4586 16.8255 98.8452 16.0754C99.2319 15.3253 99.7766 14.7373 100.479 14.3104C101.182 13.8845 102.007 13.671 102.954 13.671C103.902 13.671 104.746 13.8845 105.441 14.3104C106.136 14.7363 106.673 15.3253 107.052 16.0754C107.431 16.8255 107.621 17.6904 107.621 18.669C107.621 19.6477 107.428 20.5126 107.041 21.2627C106.653 22.0128 106.109 22.6008 105.407 23.0267H105.406Z" fill="#0CB3B7"/>
<path d="M119.628 21.2026L123.205 26.9578H127.895L123.573 20.7022C123.723 20.6448 123.87 20.5834 124.01 20.5159C124.958 20.0578 125.676 19.4225 126.166 18.609C126.655 17.7964 126.9 16.8601 126.9 15.8028C126.9 14.7456 126.655 13.7861 126.166 12.9726C125.677 12.159 124.958 11.5237 124.01 11.0656C123.063 10.6075 121.879 10.3789 120.457 10.3789H114.418V26.9578H118.42V21.2026H119.627H119.628ZM120.173 13.766C120.71 13.766 121.172 13.8526 121.559 14.0268C121.945 14.2009 122.241 14.4496 122.447 14.7728C122.652 15.097 122.755 15.4877 122.755 15.9448C122.755 16.4019 122.652 16.7936 122.447 17.1168C122.241 17.441 121.945 17.6857 121.559 17.8508C121.171 18.0169 120.71 18.0995 120.173 18.0995H118.42V13.765H120.173V13.766Z" fill="#0CB3B7"/>
<path d="M137.888 10C136.562 10 135.338 10.2054 134.217 10.6162C133.095 11.027 132.133 11.619 131.327 12.3923C130.522 13.1666 129.897 14.0818 129.456 15.14C129.014 16.1982 128.793 17.3742 128.793 18.669C128.793 19.9639 129.013 21.1409 129.456 22.1981C129.898 23.2563 130.522 24.1715 131.327 24.9458C132.133 25.7201 133.095 26.3121 134.217 26.7219C135.338 27.1327 136.562 27.3381 137.888 27.3381C139.103 27.3381 140.106 27.1881 140.896 26.888C141.686 26.588 142.412 26.1772 143.075 25.6566V21.3463C142.712 21.7249 142.294 22.0803 141.82 22.4125C141.345 22.7438 140.809 23.0126 140.209 23.218C139.609 23.4234 138.914 23.5261 138.125 23.5261C137.224 23.5261 136.399 23.3368 135.65 22.9573C134.9 22.5787 134.295 22.0219 133.837 21.2879C133.379 20.5539 133.151 19.6809 133.151 18.6711C133.151 17.6612 133.379 16.7681 133.837 16.0422C134.295 15.3162 134.899 14.7634 135.65 14.3839C136.4 14.0053 137.224 13.815 138.125 13.815C138.914 13.815 139.609 13.9137 140.209 14.111C140.809 14.3083 141.345 14.5772 141.82 14.9165C142.293 15.2558 142.712 15.6152 143.075 15.9938V11.6835C142.412 11.1629 141.686 10.7521 140.896 10.4521C140.107 10.152 139.104 10.002 137.888 10.002V10Z" fill="#0CB3B7"/>
<path d="M157 23.5234H150.345V10.3789H146.342V26.9578H157V23.5234Z" fill="#0CB3B7"/>
<path d="M172.492 12.4154C171.686 11.6422 170.743 11.0461 169.661 10.6273C168.58 10.2094 167.4 10 166.12 10C164.841 10 163.681 10.2094 162.591 10.6273C161.502 11.0461 160.554 11.6422 159.749 12.4154C158.943 13.1897 158.316 14.105 157.866 15.1632C157.416 16.2214 157.191 17.3893 157.191 18.668C157.191 19.9467 157.408 21.1238 157.843 22.1971C158.277 23.2714 158.893 24.2027 159.69 24.9921C160.488 25.7815 161.431 26.3937 162.521 26.8276C163.61 27.2616 164.81 27.479 166.121 27.479C167.432 27.479 168.608 27.2616 169.698 26.8276C170.787 26.3937 171.73 25.7815 172.528 24.9921C173.325 24.2027 173.94 23.2714 174.375 22.1971C174.809 21.1238 175.027 19.9467 175.027 18.668C175.027 17.3893 174.805 16.2204 174.363 15.1632C173.921 14.106 173.297 13.1897 172.493 12.4154H172.492ZM170.206 21.2617C169.819 22.0118 169.274 22.5998 168.572 23.0257C167.869 23.4516 167.052 23.6651 166.12 23.6651C165.189 23.6651 164.347 23.4516 163.645 23.0257C162.943 22.5998 162.398 22.0118 162.011 21.2617C161.624 20.5116 161.431 19.6477 161.431 18.668C161.431 17.6884 161.625 16.8245 162.011 16.0744C162.398 15.3243 162.943 14.7363 163.645 14.3093C164.348 13.8834 165.173 13.67 166.12 13.67C167.068 13.67 167.912 13.8834 168.607 14.3093C169.302 14.7352 169.839 15.3243 170.218 16.0744C170.597 16.8245 170.787 17.6894 170.787 18.668C170.787 19.6467 170.594 20.5116 170.207 21.2617H170.206Z" fill="#0CB3B7"/>
<path d="M190.288 24.2343C190.628 23.461 190.798 22.5528 190.798 21.5107V10.3789H186.795V21.2268C186.795 22.0635 186.574 22.7421 186.132 23.2637C185.69 23.7852 185.018 24.045 184.118 24.045C183.218 24.045 182.571 23.7842 182.129 23.2637C181.687 22.7421 181.465 22.0635 181.465 21.2268V10.3789H177.463V21.5107C177.463 22.5528 177.632 23.461 177.972 24.2343C178.312 25.0085 178.785 25.6439 179.393 26.1413C180 26.6387 180.707 27.0132 181.512 27.2659C182.318 27.5186 183.186 27.6445 184.118 27.6445C185.051 27.6445 185.922 27.5176 186.735 27.2659C187.548 27.0132 188.258 26.6387 188.867 26.1413C189.475 25.6439 189.948 25.0085 190.287 24.2343H190.288Z" fill="#0CB3B7"/>
<path d="M207.901 14.2634C207.174 13.032 206.148 12.0765 204.822 11.3978C203.496 10.7192 201.924 10.3789 200.109 10.3789H194.188V26.9578H200.109C201.924 26.9578 203.496 26.6185 204.822 25.9389C206.148 25.2603 207.174 24.3007 207.901 23.0613C208.627 21.8218 208.99 20.3579 208.99 18.6674C208.99 16.9768 208.627 15.4937 207.901 14.2624V14.2634ZM204.443 20.9308C204.175 21.5389 203.816 22.0242 203.366 22.3877C202.916 22.7512 202.395 23.0119 201.803 23.169C201.211 23.3271 200.599 23.4056 199.968 23.4056H198.31V13.9321H199.968C200.599 13.9321 201.211 14.0116 201.803 14.1687C202.395 14.3268 202.917 14.5876 203.366 14.95C203.816 15.3135 204.175 15.7988 204.443 16.407C204.712 17.0151 204.846 17.7692 204.846 18.6684C204.846 19.5675 204.712 20.3226 204.443 20.9298V20.9308Z" fill="#0CB3B7"/>
</svg>
