<svg width="21" height="21" viewBox="0 0 21 21" fill="none" xmlns="http://www.w3.org/2000/svg"><path d="M20.0133 5.27142C20.0133 5.27142 19.3619 2.16321 16.5483 1.07142C15.2251 0.567754 12.81 0.315082 10.4368 0.294586C8.04325 0.315094 5.62825 0.566935 4.30504 1.07142C1.49146 2.16325 0.840037 5.27142 0.840037 5.27142C0.420037 7.03508 0.293701 8.82 0.293701 10.395C0.293701 11.9913 0.420029 13.7764 0.840037 15.54C0.840037 15.54 1.49137 18.6482 4.30504 19.74C5.62821 20.2437 8.04325 20.4963 10.4165 20.5168C12.7897 20.4955 15.2047 20.265 16.5279 19.74C19.3415 18.6482 19.9929 15.54 19.9929 15.54C20.4129 13.7763 20.5597 11.9914 20.5392 10.4164C20.5589 8.82008 20.4332 7.035 20.0133 5.27142ZM5.88004 6.53142H7.60187V7.89642H5.88004V6.53142ZM7.60187 14.28H5.88004V12.915H7.60187V14.28ZM7.60187 11.025H5.88004V9.66H7.60187V11.025ZM15.3719 14.28H9.05129V12.915H15.3727L15.3719 14.28ZM15.3719 11.025H9.05129V9.66H15.3727L15.3719 11.025ZM15.3719 7.89642H9.05129V6.53142H15.3727L15.3719 7.89642Z" fill="#A0A0A0"/></svg>