<svg width="27" height="27" viewBox="0 0 27 27" fill="none" xmlns="http://www.w3.org/2000/svg"><path fill-rule="evenodd" clip-rule="evenodd" d="M13.4999 0.61084C10.0811 0.61084 6.80268 1.96908 4.3864 4.38664C1.96898 6.80292 0.610596 10.0814 0.610596 13.5002C0.610596 16.919 1.96884 20.1974 4.3864 22.6137C6.80268 25.0311 10.0811 26.3895 13.4999 26.3895C16.9187 26.3895 20.1972 25.0313 22.6135 22.6137C25.0309 20.1974 26.3893 16.919 26.3893 13.5002C26.3893 10.0814 25.031 6.80292 22.6135 4.38664C20.1972 1.96923 16.9187 0.61084 13.4999 0.61084ZM10.1728 16.1905C9.82726 16.3287 9.4319 16.2494 9.16568 15.9889L7.32146 14.1446C7.147 13.9725 7.04958 13.7368 7.04958 13.4921C7.04958 13.2474 7.147 13.0118 7.32146 12.8396L9.16568 10.9954V10.9943C9.42283 10.6975 9.84083 10.5978 10.2045 10.7451C10.5692 10.8923 10.7992 11.2548 10.7765 11.6468V12.5655H14.4581V14.4097L10.7368 14.4109V15.3296V15.3285C10.7425 15.7046 10.5194 16.0455 10.1728 16.1905ZM19.9443 16.263C19.9421 17.4819 19.4572 18.651 18.5951 19.513C17.7319 20.3751 16.564 20.8611 15.344 20.8633H11.6554V19.0259H15.337H15.3359C16.0688 19.0259 16.7723 18.7348 17.29 18.2171C17.8077 17.6982 18.0988 16.9959 18.0988 16.263V10.737C18.0988 9.21114 16.8618 7.97411 15.3359 7.97411H11.6555V6.1367H15.3371H15.3359C16.5571 6.1367 17.7273 6.62155 18.5918 7.48361C19.4561 8.34682 19.9421 9.51587 19.9443 10.7371L19.9443 16.263Z" fill="#A0A0A0"/></svg>